Coordinates
version=1
nRows=27
nColumns=38
inDegrees=no

Units are S.I. units (second, meters, Newtons, ...)
If the header above contains a line with 'inDegrees', this indicates whether rotational values are in degrees (yes) or radians (no).

endheader
time	pelvis_tilt	pelvis_list	pelvis_rotation	pelvis_tx	pelvis_ty	pelvis_tz	hip_flexion_r	hip_adduction_r	hip_rotation_r	knee_angle_r	ankle_angle_r	subtalar_angle_r	mtp_angle_r	hip_flexion_l	hip_adduction_l	hip_rotation_l	knee_angle_l	ankle_angle_l	subtalar_angle_l	mtp_angle_l	lumbar_extension	lumbar_bending	lumbar_rotation	arm_flex_r	arm_add_r	arm_rot_r	elbow_flex_r	pro_sup_r	wrist_flex_r	wrist_dev_r	arm_flex_l	arm_add_l	arm_rot_l	elbow_flex_l	pro_sup_l	wrist_flex_l	wrist_dev_l
9.12	0.00372187	1.32449	1.5593	0.642175	0.789551	1.01563	0.530079	0.0225532	0.148797	0.523745	-0.168108	0	0	0.376102	-0.00578231	-0.043054	0.386795	-0.205963	0	0	-0.285387	0.0362078	-0.0229732	-0.175049	-0.165087	-0.128738	1.12034	1.5708	0	0	-0.194506	-0.0371085	-0.398274	1.04159	1.5708	0	0
9.13	0.000490081	1.3257	1.56468	0.641387	0.790909	1.0158	0.526907	0.0198509	0.144879	0.523468	-0.166098	0	0	0.373019	-0.00395762	-0.0397633	0.384979	-0.207447	0	0	-0.284621	0.0353244	-0.0290792	-0.174008	-0.16469	-0.127076	1.11654	1.5708	0	0	-0.198302	-0.0372653	-0.399198	1.04134	1.5708	0	0
9.14	0.00555172	1.32519	1.56418	0.640412	0.792526	1.01572	0.524866	0.017613	0.13666	0.522745	-0.164343	0	0	0.3726	-0.00378211	-0.0351128	0.384923	-0.208037	0	0	-0.280958	0.0372466	-0.0365625	-0.173795	-0.164399	-0.12575	1.11201	1.5708	0	0	-0.202487	-0.037014	-0.39995	1.03976	1.5708	0	0
9.15	0.0122311	1.3246	1.55971	0.639572	0.794031	1.01562	0.522861	0.0173635	0.132326	0.52134	-0.162507	0	0	0.372078	-0.0047576	-0.031744	0.385048	-0.207945	0	0	-0.277663	0.0392426	-0.0421874	-0.173112	-0.164759	-0.123799	1.10778	1.5708	0	0	-0.206826	-0.0360812	-0.401321	1.03871	1.5708	0	0
9.16	0.0181831	1.32497	1.55294	0.638959	0.795483	1.01563	0.519726	0.0188984	0.133352	0.519183	-0.160827	0	0	0.369883	-0.00635344	-0.0308242	0.384839	-0.207157	0	0	-0.275817	0.0404969	-0.0448502	-0.172118	-0.165825	-0.121328	1.10376	1.5708	0	0	-0.210614	-0.0345602	-0.403157	1.03758	1.5708	0	0
9.17	0.0224103	1.32665	1.54623	0.638465	0.796993	1.01582	0.515394	0.0207623	0.136283	0.517306	-0.159386	0	0	0.365359	-0.00789748	-0.0317655	0.38334	-0.206091	0	0	-0.275481	0.0409716	-0.0456218	-0.171034	-0.167374	-0.118547	1.0997	1.5708	0	0	-0.213732	-0.0329287	-0.404833	1.0359	1.5708	0	0
9.18	0.0246533	1.32977	1.54078	0.638005	0.798546	1.01617	0.509741	0.0221156	0.139264	0.515721	-0.157875	0	0	0.358345	-0.00890298	-0.0335442	0.380044	-0.205084	0	0	-0.276815	0.0406859	-0.0455257	-0.169817	-0.169054	-0.115752	1.09559	1.5708	0	0	-0.216374	-0.0311783	-0.406534	1.03412	1.5708	0	0
9.19	0.0238152	1.33317	1.53825	0.637543	0.800062	1.01656	0.504222	0.0225421	0.142109	0.514855	-0.156713	0	0	0.350583	-0.00892529	-0.0353156	0.375893	-0.204441	0	0	-0.278481	0.0396732	-0.0444956	-0.169188	-0.170719	-0.113824	1.092	1.5708	0	0	-0.218371	-0.0296233	-0.407303	1.03191	1.5708	0	0
9.2	0.0200038	1.33627	1.53892	0.637065	0.80151	1.01694	0.499123	0.0220536	0.145123	0.51386	-0.155776	0	0	0.343062	-0.00802873	-0.03724	0.371305	-0.204283	0	0	-0.279838	0.0380581	-0.043362	-0.168912	-0.172172	-0.112578	1.08864	1.5708	0	0	-0.220034	-0.0282253	-0.407626	1.02947	1.5708	0	0
9.21	0.013406	1.34059	1.54263	0.636587	0.802947	1.01748	0.492705	0.0205463	0.147653	0.512524	-0.15397	0	0	0.333615	-0.00634352	-0.040335	0.364476	-0.205636	0	0	-0.282911	0.0354786	-0.0432891	-0.167717	-0.174145	-0.109391	1.08494	1.56694	0	0	-0.222058	-0.0262591	-0.40965	1.02844	1.5708	0	0
9.22	0.00798202	1.34249	1.5462	0.636028	0.804274	1.01776	0.489515	0.0189032	0.148877	0.512662	-0.153753	0	0	0.328392	-0.00472637	-0.0420104	0.361412	-0.205713	0	0	-0.282811	0.033571	-0.0427867	-0.167801	-0.174829	-0.109637	1.08128	1.57008	0	0	-0.223595	-0.0249546	-0.409588	1.02617	1.5708	0	0
9.23	0.00267198	1.34471	1.55009	0.635456	0.805542	1.01807	0.485512	0.0172486	0.15036	0.511925	-0.153233	0	0	0.322864	-0.0029701	-0.0436076	0.3577	-0.206229	0	0	-0.283264	0.0316607	-0.0428419	-0.167551	-0.17586	-0.108984	1.07764	1.5708	0	0	-0.225185	-0.0236402	-0.409851	1.02445	1.5708	0	0
9.24	-0.00197714	1.34691	1.55409	0.634894	0.806793	1.01837	0.481387	0.0154518	0.150578	0.511035	-0.15246	0	0	0.317559	-0.00127761	-0.0444073	0.354102	-0.206917	0	0	-0.283816	0.0300416	-0.0436132	-0.167311	-0.177104	-0.107598	1.07429	1.5708	0	0	-0.226859	-0.0224619	-0.410271	1.023	1.5708	0	0
9.25	-0.00473781	1.34909	1.55665	0.634361	0.808027	1.01867	0.477334	0.0139016	0.149195	0.510247	-0.1516	0	0	0.312438	-8.95337e-05	-0.044758	0.350883	-0.207597	0	0	-0.284532	0.028945	-0.0448441	-0.16696	-0.17825	-0.106039	1.07116	1.5708	0	0	-0.228584	-0.0213269	-0.410836	1.02166	1.5708	0	0
9.26	-0.00540235	1.35086	1.55718	0.633867	0.809206	1.01893	0.473337	0.0131022	0.148258	0.508609	-0.150842	0	0	0.308173	0.000604058	-0.0451003	0.348559	-0.207976	0	0	-0.284888	0.0283304	-0.0459488	-0.166726	-0.179266	-0.104712	1.06837	1.57057	0	0	-0.230266	-0.0201245	-0.411515	1.02024	1.5708	0	0
9.27	-0.00442425	1.35261	1.55591	0.633393	0.81035	1.01919	0.469095	0.0128597	0.147716	0.506301	-0.15011	0	0	0.304	0.000921289	-0.0455555	0.346295	-0.208167	0	0	-0.285358	0.0280787	-0.0468778	-0.166566	-0.180418	-0.103237	1.06607	1.56994	0	0	-0.231988	-0.0189337	-0.41217	1.01899	1.5708	0	0
9.28	-0.0030439	1.35494	1.55415	0.632945	0.811499	1.01948	0.464474	0.0126466	0.146518	0.504428	-0.149298	0	0	0.299022	0.00114193	-0.0461718	0.343667	-0.208312	0	0	-0.286538	0.0279227	-0.0475977	-0.166648	-0.181821	-0.101488	1.06443	1.56876	0	0	-0.233683	-0.0178853	-0.412632	1.01806	1.5708	0	0
9.29	-0.0025836	1.35975	1.55349	0.632513	0.812721	1.02001	0.456782	0.0119617	0.144139	0.501753	-0.146979	0	0	0.290291	0.00177391	-0.0469509	0.338218	-0.209825	0	0	-0.29076	0.0274402	-0.0486051	-0.166483	-0.183999	-0.0980298	1.06359	1.56082	0	0	-0.235413	-0.0170948	-0.413018	1.01833	1.5708	0	0
9.3	-0.00298331	1.36232	1.55358	0.632112	0.813851	1.02032	0.451791	0.0115631	0.143757	0.499697	-0.146198	0	0	0.284891	0.00254483	-0.0471929	0.335255	-0.210016	0	0	-0.291987	0.0268973	-0.048403	-0.167518	-0.184957	-0.0976166	1.06265	1.55862	0	0	-0.236723	-0.017141	-0.411518	1.01733	1.5708	0	0
9.31	-0.00239173	1.36532	1.55336	0.631621	0.814872	1.02069	0.446123	0.011106	0.143166	0.497052	-0.145319	0	0	0.279303	0.00341407	-0.0459609	0.332558	-0.210352	0	0	-0.2939	0.0268311	-0.0482782	-0.168752	-0.186101	-0.0975465	1.0623	1.55597	0	0	-0.237677	-0.0174971	-0.409175	1.01661	1.5708	0	0
9.32	-0.00280085	1.36834	1.55347	0.631213	0.81592	1.02103	0.440713	0.010797	0.143507	0.495016	-0.144309	0	0	0.273352	0.00419299	-0.0456053	0.329204	-0.210965	0	0	-0.295684	0.0263984	-0.0473205	-0.170268	-0.18742	-0.0973628	1.06204	1.55277	0	0	-0.238649	-0.0182467	-0.406174	1.01592	1.5708	0	0
9.33	-0.00545917	1.3712	1.55443	0.63096	0.817061	1.02133	0.435952	0.0105643	0.144806	0.493865	-0.143264	0	0	0.266841	0.0048272	-0.0474676	0.324649	-0.211959	0	0	-0.297087	0.0251455	-0.0452084	-0.172039	-0.188477	-0.0974191	1.06174	1.54864	0	0	-0.239876	-0.019345	-0.402741	1.01515	1.5708	0	0
9.34	-0.0091591	1.37449	1.55581	0.630735	0.818207	1.02168	0.430825	0.0102349	0.146177	0.492617	-0.142151	0	0	0.25942	0.00555003	-0.0504092	0.318888	-0.213268	0	0	-0.29894	0.0236963	-0.0424397	-0.173992	-0.189979	-0.0970556	1.06203	1.54243	0	0	-0.241028	-0.0207815	-0.398458	1.01441	1.5708	0	0
9.35	-0.0120709	1.37739	1.55778	0.630443	0.819296	1.02198	0.426432	0.00939567	0.145471	0.492168	-0.141303	0	0	0.253175	0.00641482	-0.051586	0.314716	-0.214067	0	0	-0.300554	0.0227849	-0.0410013	-0.176135	-0.191308	-0.096826	1.06296	1.53719	0	0	-0.24248	-0.0219507	-0.394975	1.0145	1.5708	0	0
9.36	-0.014632	1.38052	1.55996	0.63014	0.820343	1.02229	0.421623	0.00832337	0.14437	0.491308	-0.140453	0	0	0.246909	0.00733141	-0.0526541	0.310712	-0.214858	0	0	-0.302673	0.0220226	-0.0397418	-0.178736	-0.193047	-0.0961981	1.0651	1.53077	0	0	-0.244112	-0.0231641	-0.391434	1.01581	1.5708	0	0
9.37	-0.0168266	1.38374	1.5614	0.629852	0.821332	1.02261	0.416666	0.00737158	0.143736	0.490088	-0.139588	0	0	0.240583	0.00804821	-0.054236	0.306778	-0.215567	0	0	-0.305032	0.0211149	-0.0380319	-0.181563	-0.195453	-0.0949301	1.06833	1.5231	0	0	-0.246099	-0.02418	-0.388227	1.01854	1.5708	0	0
9.38	-0.0194057	1.38666	1.56329	0.629586	0.822303	1.02289	0.412155	0.00640436	0.143084	0.489365	-0.138549	0	0	0.234695	0.00878497	-0.0558075	0.303101	-0.216206	0	0	-0.306873	0.019893	-0.0362288	-0.184812	-0.198448	-0.0930369	1.0725	1.51428	0	0	-0.248448	-0.0251321	-0.385408	1.02252	1.5708	0	0
